#!OML:ASF F:\VICON\USERDATA\INSTALL\rory3\rory3.ASF
:FULLY-SPECIFIED
:DEGREES
2608
root -0.614945 16.2873 -7.79997 166.725 -177.51 -178.943
lowerback 27.1284 3.84093 -0.746499
upperback 13.1866 4.75134 0.929313
thorax -0.402989 2.30786 0.176711
lowerneck -2.97113 -3.31579 -5.45131
upperneck 19.9613 -5.76153 9.71485
head 6.97867 -2.3978 3.67345
rclavicle 3.12092e-014 -3.02153e-014
rhumerus -24.9997 -1.97527 -72.1484
rradius 85.9332
rwrist 1.79926
rhand -38.1512 7.15097
rfingers 7.12502
rthumb -11.1851 -22.5309
lclavicle 3.12092e-014 -3.02153e-014
lhumerus -54.0383 -23.3528 97.1771
lradius 69.3307
lwrist 37.3503
lhand -18.5938 28.0011
lfingers 7.12502
lthumb 7.6972 57.841
rfemur -41.1115 -16.7663 5.98986
rtibia 75.619
rfoot 20.736 18.7026
rtoes 11.9017
lfemur -46.6549 34.7813 -0.115704
ltibia 94.8532
lfoot 29.9568 -2.87347
ltoes 15.4101
2609
root -0.590022 16.2822 -7.82434 166.371 -177.408 -178.962
lowerback 27.2882 4.08126 -0.662846
upperback 13.0608 5.06679 0.665742
thorax -0.587932 2.47983 -0.254517
lowerneck -2.34033 -3.43751 -4.96418
upperneck 19.8758 -5.96821 9.6609
head 6.84131 -2.48336 3.56598
rclavicle -1.23246e-014 3.4191e-014
rhumerus -25.5756 -2.75199 -72.1701
rradius 86.1881
rwrist 2.24196
rhand -38.6364 5.60666
rfingers 7.12502
rthumb -11.6531 -24.0493
lclavicle -1.23246e-014 3.4191e-014
lhumerus -54.7396 -24.5169 97.3323
lradius 69.7294
lwrist 37.6576
lhand -18.7015 27.6679
lfingers 7.12502
lthumb 7.59325 57.5116
rfemur -41.0146 -16.8463 5.78803
rtibia 75.5602
rfoot 21.9737 18.8436
rtoes 12.322
lfemur -46.1544 34.3254 0.127583
ltibia 94.9528
lfoot 30.0927 -2.92606
ltoes 15.1614
2610
root -0.564882 16.2758 -7.85037 166.099 -177.342 -179.077
lowerback 27.4 4.23274 -0.632147
upperback 13.0131 5.26123 0.538587
thorax -0.677078 2.58302 -0.470758
lowerneck -1.92333 -3.50947 -4.87912
upperneck 19.7541 -6.07419 9.68018
head 6.73492 -2.54026 3.55581
rclavicle 8.94531e-016 -5.36719e-015
rhumerus -25.781 -3.16854 -72.0513
rradius 86.2585
rwrist 2.31676
rhand -38.665 4.91137
rfingers 7.12502
rthumb -11.6806 -24.743
lclavicle 8.94531e-016 -5.36719e-015
lhumerus -55.0092 -25.3084 97.4483
lradius 69.9462
lwrist 38.6097
lhand -18.1592 27.2158
lfingers 7.12502
lthumb 8.11669 57.0399
rfemur -40.9626 -16.985 5.7171
rtibia 75.5441
rfoot 22.8707 19.1004
rtoes 11.9553
lfemur -45.7974 33.8135 0.362433
ltibia 94.9687
lfoot 30.3476 -2.94132
ltoes 15.0047
2611
root -0.538357 16.2695 -7.87466 165.831 -177.318 -179.196
lowerback 27.5325 4.29991 -0.644098
upperback 13.0248 5.3384 0.447851
thorax -0.715527 2.62416 -0.591017
lowerneck -1.79683 -3.54905 -4.9988
upperneck 19.7188 -6.12834 9.73863
head 6.71054 -2.57493 3.59335
rclavicle -4.02539e-014 1.80894e-014
rhumerus -25.6957 -3.30346 -71.9105
rradius 86.1345
rwrist 2.26745
rhand -38.6632 5.08384
rfingers 7.12502
rthumb -11.6789 -24.5706
lclavicle -4.02539e-014 1.80894e-014
lhumerus -54.9882 -25.8067 97.5056
lradius 69.9932
lwrist 39.7794
lhand -17.3475 26.8689
lfingers 7.12502
lthumb 8.90001 56.6612
rfemur -40.8574 -17.1775 5.63962
rtibia 75.5227
rfoot 23.785 19.1476
rtoes 12.2653
lfemur -45.4563 33.2373 0.545048
ltibia 94.9031
lfoot 30.5959 -3.20692
ltoes 14.4352
2612
root -0.51226 16.2692 -7.89589 165.505 -177.395 -179.081
lowerback 27.5898 4.29709 -1.02335
upperback 13.2364 5.24067 0.369318
thorax -0.526145 2.56138 -0.429811
lowerneck -2.27674 -3.48063 -5.26821
upperneck 19.8682 -5.99447 9.63113
head 6.83744 -2.5226 3.60702
rclavicle 2.72335e-014 1.78906e-015
rhumerus -25.1176 -3.07156 -71.7813
rradius 85.9771
rwrist 2.03512
rhand -38.8678 5.88282
rfingers 7.12502
rthumb -11.8762 -23.7604
lclavicle 2.72335e-014 1.78906e-015
lhumerus -54.6402 -25.9242 97.5085
lradius 70.0965
lwrist 40.5476
lhand -17.2369 27.0199
lfingers 7.12502
lthumb 9.00675 56.8076
rfemur -40.6512 -17.4909 5.2777
rtibia 75.4802
rfoot 24.7136 19.056
rtoes 12.8907
lfemur -44.9838 32.5087 0.431848
ltibia 94.7262
lfoot 30.7226 -3.47854
ltoes 13.3174
2613
root -0.487687 16.2666 -7.91878 165.276 -177.376 -179.117
lowerback 27.5158 4.15764 -1.57556
upperback 13.7122 4.93785 0.513869
thorax -0.00884971 2.37425 0.145525
lowerneck -3.73344 -3.24571 -6.11809
upperneck 20.2357 -5.53814 9.4251
head 7.19619 -2.33879 3.70137
rclavicle 3.13086e-014 7.95139e-016
rhumerus -23.6417 -2.15983 -71.4896
rradius 85.7528
rwrist 1.59034
rhand -39.2577 6.75648
rfingers 7.12502
rthumb -12.2522 -22.8646
lclavicle 3.13086e-014 7.95139e-016
lhumerus -53.5136 -25.3016 97.3857
lradius 70.0739
lwrist 41.1414
lhand -17.4163 26.7542
lfingers 7.12502
lthumb 8.8336 56.5493
rfemur -40.6007 -17.7857 5.20526
rtibia 75.4459
rfoot 25.4411 18.9045
rtoes 12.8571
lfemur -44.5877 31.8656 0.502398
ltibia 94.5253
lfoot 31.0017 -3.36498
ltoes 13.4915
